<?xml version="1.0" encoding="utf-8"?>
<!-- Generator: Adobe Illustrator 16.0.0, SVG Export Plug-In . SVG Version: 6.00 Build 0)  -->
<!DOCTYPE svg PUBLIC "-//W3C//DTD SVG 1.1//EN" "http://www.w3.org/Graphics/SVG/1.1/DTD/svg11.dtd">
<svg version="1.1" id="Layer_1" xmlns="http://www.w3.org/2000/svg" xmlns:xlink="http://www.w3.org/1999/xlink" x="0px" y="0px"
	 width="850.394px" height="517px" viewBox="0 0 850.394 517" enable-background="new 0 0 850.394 517" xml:space="preserve">
<g>
	<g>
		<path fill-rule="evenodd" clip-rule="evenodd" fill="#2A9549" d="M18.884,190.608c-21.661,4.163-16.272,33.81,4.707,30.933
			C43.282,218.839,38.129,186.907,18.884,190.608"/>
		<path fill-rule="evenodd" clip-rule="evenodd" fill="#D67C1F" d="M42.71,162.205c-19.151,6.989-9.743,34.82,9.831,29.444
			C71.373,186.476,63.391,154.658,42.71,162.205"/>
		<path fill-rule="evenodd" clip-rule="evenodd" fill="#C3107A" d="M195.728,354.297c10.629-16.271-15.323-30.783-24.287-14.931
			C161.82,356.378,186.036,369.127,195.728,354.297"/>
		<path fill-rule="evenodd" clip-rule="evenodd" fill="#159BDC" d="M151.939,184.733c-4.249,1.508-5.655,1.302-8.143,5.997
			c-5.592,10.549,3.028,23.902,16.601,19.86C176.194,205.883,169.39,178.55,151.939,184.733"/>
		<path fill-rule="evenodd" clip-rule="evenodd" fill="#C3107A" d="M101.594,183.762c-14.329,7.852-1.927,26.981,11.298,20.034
			C125.112,197.379,116.449,175.622,101.594,183.762"/>
		<path fill-rule="evenodd" clip-rule="evenodd" fill="#159BDC" d="M65.861,230.363c-13.828,5.934-5.383,23.678,7.38,18.832
			C84.535,244.908,79.054,224.7,65.861,230.363"/>
		<path fill-rule="evenodd" clip-rule="evenodd" fill="#FFFFFF" d="M118.104,208.621c-14.626,4.326-8.755,22.642,4.306,19.857
			C135.112,225.769,130.748,204.881,118.104,208.621"/>
		<path fill-rule="evenodd" clip-rule="evenodd" fill="#D9D9D9" d="M15.838,318.087c2.151,11.698,23.219,8.861,18.884-5.634
			C31.447,301.509,13.428,304.974,15.838,318.087"/>
		<path fill-rule="evenodd" clip-rule="evenodd" fill="#2A9549" d="M144.221,243.462c-3,2.987-7.143,5.646-5.375,12.129
			c1.142,4.188,5.541,8.21,11.385,7.049C160.563,260.586,163.388,242.464,144.221,243.462"/>
		<path fill-rule="evenodd" clip-rule="evenodd" fill="#FFFFFF" d="M157.42,318.247c0.9,11.253,19.455,10.413,18.26-2.09
			C174.604,304.896,156.358,304.983,157.42,318.247"/>
		<path fill-rule="evenodd" clip-rule="evenodd" fill="#2A9549" d="M134.396,332.176c5.937-10.66-11.599-17.373-15.568-7.489
			C114.332,335.884,128.913,342.028,134.396,332.176"/>
		<path fill-rule="evenodd" clip-rule="evenodd" fill="#FFFFFF" d="M48.067,282.722c-13.034-2.289-13.004,5.764-8.401,14.167
			C51.938,298.796,55.524,290.951,48.067,282.722"/>
		<path fill-rule="evenodd" clip-rule="evenodd" fill="#32307B" d="M98.596,270.213c9.198,6.541,16.83,0.108,13.163-7.697
			C108.291,255.131,96.26,256.558,98.596,270.213"/>
		<path fill-rule="evenodd" clip-rule="evenodd" fill="#222221" d="M161.008,281.965c-13.989,18.983,22.25,17.963,8.08-0.481
			L161.008,281.965z"/>
		<path fill-rule="evenodd" clip-rule="evenodd" fill="#FDEC1D" d="M89.565,123.785c2.151,11.697,23.22,8.861,18.883-5.635
			C105.175,107.207,87.155,110.67,89.565,123.785"/>
		<path fill-rule="evenodd" clip-rule="evenodd" fill="#FDEC1D" d="M89.643,293.442c-21.662,4.161-16.271,33.81,4.707,30.933
			C114.04,321.674,108.89,289.741,89.643,293.442"/>
		<path fill-rule="evenodd" clip-rule="evenodd" fill="#2A9549" d="M204.502,116.791c-21.661,4.163-16.271,33.809,4.708,30.932
			C228.901,145.021,223.749,113.091,204.502,116.791"/>
		<path fill-rule="evenodd" clip-rule="evenodd" fill="#D67C1F" d="M228.33,88.386c-19.153,6.99-9.744,34.821,9.83,29.446
			C256.993,112.658,249.009,80.841,228.33,88.386"/>
		<path fill-rule="evenodd" clip-rule="evenodd" fill="#C3107A" d="M381.346,280.479c10.631-16.27-15.321-30.783-24.287-14.931
			C347.441,282.561,371.656,295.311,381.346,280.479"/>
		<path fill-rule="evenodd" clip-rule="evenodd" fill="#159BDC" d="M337.559,110.916c-4.249,1.507-5.655,1.3-8.145,5.996
			c-5.59,10.55,3.029,23.901,16.601,19.861C361.813,132.065,355.009,104.729,337.559,110.916"/>
		<path fill-rule="evenodd" clip-rule="evenodd" fill="#C3107A" d="M287.213,109.943c-14.33,7.854-1.928,26.983,11.299,20.035
			C310.73,123.56,302.067,101.804,287.213,109.943"/>
		<path fill-rule="evenodd" clip-rule="evenodd" fill="#159BDC" d="M251.479,156.543c-13.827,5.935-5.382,23.678,7.381,18.833
			C270.154,171.089,264.671,150.881,251.479,156.543"/>
		<path fill-rule="evenodd" clip-rule="evenodd" fill="#FFFFFF" d="M303.725,134.802c-14.627,4.326-8.754,22.643,4.305,19.855
			C320.733,151.95,316.367,131.063,303.725,134.802"/>
		<path fill-rule="evenodd" clip-rule="evenodd" fill="#D9D9D9" d="M201.457,244.269c2.149,11.697,23.218,8.862,18.883-5.635
			C217.067,227.691,199.047,231.154,201.457,244.269"/>
		<path fill-rule="evenodd" clip-rule="evenodd" fill="#2A9549" d="M329.841,169.644c-2.999,2.988-7.143,5.646-5.376,12.129
			c1.142,4.187,5.539,8.211,11.386,7.049C346.183,186.767,349.008,168.645,329.841,169.644"/>
		<path fill-rule="evenodd" clip-rule="evenodd" fill="#FFFFFF" d="M343.038,244.429c0.902,11.252,19.456,10.411,18.262-2.092
			C360.225,231.077,341.979,231.166,343.038,244.429"/>
		<path fill-rule="evenodd" clip-rule="evenodd" fill="#2A9549" d="M320.016,258.359c5.937-10.66-11.598-17.376-15.567-7.492
			C299.951,262.069,314.533,268.21,320.016,258.359"/>
		<path fill-rule="evenodd" clip-rule="evenodd" fill="#FFFFFF" d="M233.687,208.903c-13.033-2.286-13.003,5.764-8.403,14.167
			C237.559,224.979,241.143,217.133,233.687,208.903"/>
		<path fill-rule="evenodd" clip-rule="evenodd" fill="#32307B" d="M284.215,196.394c9.197,6.543,16.83,0.108,13.164-7.695
			C293.91,181.312,281.878,182.739,284.215,196.394"/>
		<path fill-rule="evenodd" clip-rule="evenodd" fill="#222221" d="M346.628,208.148c-13.989,18.981,22.25,17.961,8.079-0.483
			L346.628,208.148z"/>
		<path fill-rule="evenodd" clip-rule="evenodd" fill="#FDEC1D" d="M275.186,49.965c2.15,11.698,23.218,8.864,18.882-5.635
			C290.793,33.389,272.775,36.853,275.186,49.965"/>
		<path fill-rule="evenodd" clip-rule="evenodd" fill="#FDEC1D" d="M275.261,219.624c-21.661,4.163-16.271,33.81,4.707,30.931
			C299.659,247.854,294.509,215.922,275.261,219.624"/>
		<path fill-rule="evenodd" clip-rule="evenodd" fill="#2A9549" d="M473.51,110.996c-21.663,4.165-16.274,33.81,4.704,30.935
			C497.907,139.229,492.755,107.297,473.51,110.996"/>
		<path fill-rule="evenodd" clip-rule="evenodd" fill="#D67C1F" d="M497.336,82.595c-19.154,6.987-9.741,34.82,9.83,29.442
			C525.999,106.866,518.016,75.049,497.336,82.595"/>
		<path fill-rule="evenodd" clip-rule="evenodd" fill="#C3107A" d="M650.354,274.685c10.63-16.27-15.324-30.784-24.287-14.929
			C616.444,276.768,640.662,289.515,650.354,274.685"/>
		<path fill-rule="evenodd" clip-rule="evenodd" fill="#159BDC" d="M606.564,105.125c-4.251,1.505-5.656,1.298-8.146,5.993
			c-5.588,10.55,3.031,23.903,16.604,19.861C630.817,126.272,624.016,98.938,606.564,105.125"/>
		<path fill-rule="evenodd" clip-rule="evenodd" fill="#C3107A" d="M556.22,104.151c-14.329,7.853-1.929,26.981,11.299,20.036
			C579.736,117.766,571.074,96.011,556.22,104.151"/>
		<path fill-rule="evenodd" clip-rule="evenodd" fill="#159BDC" d="M520.485,150.751c-13.824,5.934-5.383,23.678,7.384,18.834
			C539.16,165.295,533.68,145.087,520.485,150.751"/>
		<path fill-rule="evenodd" clip-rule="evenodd" fill="#FFFFFF" d="M572.731,129.007c-14.627,4.328-8.759,22.644,4.305,19.86
			C589.738,146.156,585.371,125.271,572.731,129.007"/>
		<path fill-rule="evenodd" clip-rule="evenodd" fill="#D9D9D9" d="M470.465,238.475c2.148,11.697,23.219,8.863,18.882-5.634
			C486.075,221.898,468.053,225.363,470.465,238.475"/>
		<path fill-rule="evenodd" clip-rule="evenodd" fill="#2A9549" d="M598.846,163.85c-2.998,2.99-7.14,5.646-5.372,12.131
			c1.139,4.187,5.537,8.21,11.382,7.047C615.188,180.974,618.012,162.853,598.846,163.85"/>
		<path fill-rule="evenodd" clip-rule="evenodd" fill="#FFFFFF" d="M612.047,238.634c0.898,11.255,19.45,10.412,18.259-2.09
			C629.229,225.286,610.984,225.372,612.047,238.634"/>
		<path fill-rule="evenodd" clip-rule="evenodd" fill="#2A9549" d="M589.024,252.567c5.935-10.663-11.6-17.374-15.569-7.491
			C568.955,256.275,583.537,262.417,589.024,252.567"/>
		<path fill-rule="evenodd" clip-rule="evenodd" fill="#FFFFFF" d="M502.693,203.112c-13.036-2.289-13.004,5.762-8.403,14.164
			C506.565,219.187,510.149,211.341,502.693,203.112"/>
		<path fill-rule="evenodd" clip-rule="evenodd" fill="#32307B" d="M553.221,190.601c9.196,6.544,16.83,0.107,13.165-7.697
			C562.917,175.519,550.887,176.947,553.221,190.601"/>
		<path fill-rule="evenodd" clip-rule="evenodd" fill="#222221" d="M615.635,202.355c-13.988,18.981,22.247,17.96,8.078-0.484
			L615.635,202.355z"/>
		<path fill-rule="evenodd" clip-rule="evenodd" fill="#FDEC1D" d="M544.191,44.172c2.151,11.699,23.22,8.862,18.882-5.633
			C559.802,27.593,541.781,31.06,544.191,44.172"/>
		<path fill-rule="evenodd" clip-rule="evenodd" fill="#FDEC1D" d="M544.269,213.83c-21.662,4.164-16.272,33.811,4.705,30.935
			C568.668,242.062,563.512,210.131,544.269,213.83"/>
		<path fill-rule="evenodd" clip-rule="evenodd" fill="#2A9549" d="M820.078,103.037c21.482,5.009,14.935,34.421-5.915,30.726
			C794.595,130.293,800.992,98.585,820.078,103.037"/>
		<path fill-rule="evenodd" clip-rule="evenodd" fill="#D67C1F" d="M797.382,73.72c18.867,7.734,8.374,35.178-10.976,29.038
			C767.792,96.852,777.015,65.372,797.382,73.72"/>
		<path fill-rule="evenodd" clip-rule="evenodd" fill="#C3107A" d="M636.959,259.67c-9.985-16.674,16.516-30.16,24.853-13.968
			C670.758,263.081,646.061,274.871,636.959,259.67"/>
		<path fill-rule="evenodd" clip-rule="evenodd" fill="#159BDC" d="M687.356,91.954c4.187,1.671,5.601,1.519,7.901,6.31
			c5.175,10.759-3.964,23.764-17.364,19.196C662.291,112.139,670.163,85.091,687.356,91.954"/>
		<path fill-rule="evenodd" clip-rule="evenodd" fill="#C3107A" d="M737.701,92.956c14.01,8.408,0.868,27.037-12.076,19.576
			C713.669,105.639,723.176,84.238,737.701,92.956"/>
		<path fill-rule="evenodd" clip-rule="evenodd" fill="#159BDC" d="M771.58,140.919c13.584,6.473,4.45,23.87-8.114,18.528
			C752.352,154.722,758.62,134.747,771.58,140.919"/>
		<path fill-rule="evenodd" clip-rule="evenodd" fill="#FFFFFF" d="M720.229,117.147c14.445,4.896,7.862,22.967-5.078,19.675
			C702.559,133.617,707.74,112.917,720.229,117.147"/>
		<path fill-rule="evenodd" clip-rule="evenodd" fill="#D9D9D9" d="M818.126,230.536c-2.606,11.604-23.547,7.946-18.646-6.368
			C803.18,213.358,821.051,217.526,818.126,230.536"/>
		<path fill-rule="evenodd" clip-rule="evenodd" fill="#2A9549" d="M692.769,150.939c2.878,3.104,6.915,5.922,4.896,12.331
			c-1.307,4.14-5.859,7.985-11.654,6.596C675.765,167.408,673.653,149.191,692.769,150.939"/>
		<path fill-rule="evenodd" clip-rule="evenodd" fill="#FFFFFF" d="M676.648,225.15c-1.341,11.208-19.846,9.641-18.163-2.806
			C660.002,211.138,678.228,211.937,676.648,225.15"/>
		<path fill-rule="evenodd" clip-rule="evenodd" fill="#2A9549" d="M699.107,239.97c-5.512-10.885,12.271-16.906,15.851-6.873
			C719.013,244.463,704.204,250.028,699.107,239.97"/>
		<path fill-rule="evenodd" clip-rule="evenodd" fill="#FFFFFF" d="M787.311,193.936c13.109-1.775,12.765,6.269,7.839,14.484
			C782.81,209.848,779.536,201.869,787.311,193.936"/>
		<path fill-rule="evenodd" clip-rule="evenodd" fill="#32307B" d="M737.31,179.457c-9.449,6.178-16.818-0.552-12.853-8.207
			C728.215,164.008,740.179,165.903,737.31,179.457"/>
		<path fill-rule="evenodd" clip-rule="evenodd" fill="#222221" d="M674.48,188.756c13.239,19.515-22.933,17.074-8.049-0.801
			L674.48,188.756z"/>
		<path fill-rule="evenodd" clip-rule="evenodd" fill="#FDEC1D" d="M752.07,33.495c-2.609,11.604-23.549,7.945-18.647-6.369
			C737.122,16.319,754.994,20.486,752.07,33.495"/>
		<path fill-rule="evenodd" clip-rule="evenodd" fill="#FDEC1D" d="M745.344,203.018c21.482,5.009,14.934,34.423-5.914,30.724
			C719.859,230.273,726.26,198.568,745.344,203.018"/>
		<path fill-rule="evenodd" clip-rule="evenodd" fill="#FFFFFF" d="M173.742,463.686c-4.821,1.831-9.761,3.32-13.867,4.524
			c-16.56,4.86-33.117,9.718-49.678,14.582C96.994,428.579,83.79,374.37,70.587,320.159c14.543-4.269,29.087-8.537,43.631-12.804
			c8.379-2.459,18.15-4.737,26.926-4.25c9.464,0.525,17.726,4.752,24.32,11.498c1.246,1.273,2.395,2.657,3.46,4.124
			c-0.14-6.05-0.28-12.101-0.42-18.152c9.071,0.286,18.141,0.567,27.212,0.852c-2.394-12.217-4.162-24.717-6.268-36.997
			c-1.321-7.717-2.694-15.458-4.346-23.11c-0.307-1.427-0.669-3.172-1.082-4.975c-8.838-0.877-18.128-2.1-25.743-6.033
			c-9.152,0.862-25.172,6.946-33.533,8.057c-0.193,0.025-0.389,0.049-0.583,0.086c-3.758,0.805-5.426,0.383-8.999-0.383
			c-3.651-0.779-6.809-2.077-9.271-4.344c-0.699-0.433-1.394-0.864-2.095-1.297c-0.656-1.361-1.311-2.725-1.966-4.089
			c-2.403-4.989-3.082-10.489-1.447-15.739c-4.49-1.153-8.552-3.276-11.746-7.166c-8.265-7.266-3.615-21.45,7.475-24.304
			c-7.388-0.159-13.828-15.768-2.513-27.952c3.851-2.371,7.705-3.223,11.645-3.297c-2.27-3.715-3.65-7.963-3.775-12.805
			c0.986-5.164-0.097-9.169,9.773-14.855c8.255-3.301,16.477-3.384,24.528,0.519c2.856,1.382,5.156,3.18,7.842,4.616
			c5.767,3.079,11.624,5.346,17.274,8.781c1.635,0.995,3.353,2.154,5.103,3.322c-0.941-6.759-0.377-13.547,3.863-19.517
			c4.269-6.01,10.871-8.981,18.081-9.422c5.535,0.678,11.112,3.298,14.29,7.556c2.445,4.096,3.473,9.59,4.901,14.171
			c1.52,4.87,3.458,9.5,6.304,13.755c6.622,9.907,13.575,21.758,15.937,33.583c1.614,8.084,0.876,14.148-1.016,21.979
			c-1.621,6.722-0.773,9.312,2.439,15.802c4.169,8.423,7.721,17.853,11.117,26.627c4.997,12.899,9.788,25.891,14.484,38.908
			c2.374,6.584,4.727,13.184,7.046,19.797c0.75-5.608,1.649-11.2,2.346-16.427c0.75-5.611,3.202-23.11,1.797-28.202
			c-0.032-0.115-0.043-0.192-0.106-0.291c-2.789-4.317-4.413-5.739-6.126-11.143c-1.127-3.564-1.212-6.152-1.856-9.453
			c-0.003-0.025-0.034-0.045-0.05-0.065c-0.951-1.29-3.422-3.171-4.68-4.212c-8.016-6.635-10.269-14.634-14.837-24.679
			c-6.657-14.634-0.535-16.843,12.133-15.599c2.032,0.202-5.187-12.464-2.544-16.686c4.817-7.702,13.559,0.327,18.227,0.146
			c0.921-0.034,1.558-9.28,4.852-11.34c9.763-6.102,19.952,11.295,22.027,11.141c6.837-0.509,16.215-8.759,21.141-3.261
			c4.907,5.477,4.338,10.056,4.744,16.42c0.189,3.022,0.006,8.502,0.205,14.026c0.005,0.144,0.27-0.11,0.407-0.164
			c6.457-2.54,13.581-2.432,19.391,1.212c8.276,5.188,10.942,10.223,8.241,17.31c-2.659,6.985-14.96,22.705-20.311,28.892
			c-4.084,4.714-7.276,8.744-12.464,12.459c-0.464,0.332-1.529,0.425-1.577,1.093c-0.871,11.735,0.006,23.784,0.778,35.513
			c0.052,0.812,0.098,1.622,0.138,2.432c0.331-0.17,0.666-0.335,1.004-0.496c7.065-3.363,14.823-4.667,22.61-4.407
			c6.727,0.226,13.314,1.451,19.407,4.011c1.846-2.814,4.027-5.407,6.527-7.757c1.23-26.796,3.361-53.545,4.364-80.352
			c0.099-2.721,1.005-10.883,0.677-13.789c-0.457-0.48-1.189-1.04-1.604-1.355c-17.872-13.54-30.029-34.294-43.66-51.797
			c-0.907-1.164-3.368-2.734-4.668-4.123c-4.604-4.919-6.077-10.842-6.084-17.413c2.905-10.228,3.413-12.002,11.953-15.16
			c9.432-2.243,18.554-0.98,26.601,4.566c3.581,2.473,6.464,5.456,9.263,8.715c0.715-7.031,0.644-15.717,0.669-18.956
			c0.062-8.453,1.739-16.136,2.356-24.407c0.637-8.54,0.561-16.18,6.92-23.022c4.714-5.071,11.191-7.176,17.99-6.886
			c0.924,0.039,1.848,0.077,2.772,0.116c0.852,0.356,1.706,0.713,2.558,1.069c2.251,0.94,4.112,2.24,5.652,3.813
			c1.526-1.359,3.289-2.523,5.332-3.439c7.189-3.214,14.872-1.743,21.308,2.396c1.238,0.798,2.479,1.594,3.718,2.39
			c0.637,1.332,1.271,2.663,1.905,3.994c1.817,3.802,2.297,8.694,2.076,13.854c2.389-1.97,5.137-3.451,8.44-4.22
			c7.021-1.631,13.758,0.772,18.924,5.585c0.611,0.572,1.226,1.144,1.836,1.714c0.403,0.737,0.807,1.469,1.208,2.204
			c1.204,2.203,2.026,4.585,2.441,7.062c0.66,3.982,0.241,7.754-0.872,11.328c0.229,0.105,0.464,0.218,0.694,0.335
			c6.69,3.387,9.995,10.04,10.268,17.303c0.53,14.342-14.946,24.625-24.625,33.049c-2.555,2.226-9.065,8.001-10.286,11.149
			c-1.906,4.923-2.097,10.11-3.41,15.191c-1.884,7.288-5.449,13.046-10.816,18.293c-0.852,0.827-3.309,3.185-3.821,4.265
			c-0.577,2.13,0.542,12.26,0.723,14.686c1.259,16.64,2.911,33.246,4.294,49.873c11.918,0.01,23.84,0.021,35.755,0.03
			c1.91-7.411,3.854-14.816,6.088-22.134c3.419-11.2,7.312-22.238,10.848-33.398c0.345-1.092,0.84-2.438,1.236-3.721
			c-2.617-4.262-4.022-8.746-4.134-13.789c-0.042-1.963,0.354-4.496,0.211-6.454c-0.55-1.188-1.79-2.88-2.47-3.824
			c-5.452-7.593-12.28-15.49-9.476-25.688c1.214-4.434,3.841-8.217,7.556-10.599c0.633-3.108,2.059-6.095,4.501-8.816
			c0.561-0.624,1.118-1.247,1.68-1.871c0.729-0.415,1.457-0.834,2.185-1.248c4.313-2.461,9.253-3.243,13.929-1.988
			c0.061-0.079,0.121-0.154,0.184-0.229c0.921-1.151,1.845-2.302,2.769-3.452c1.391-0.492,2.78-0.984,4.171-1.476
			c5.932-2.095,12.318-1.616,17.495,2.072c0.021-0.004,0.039-0.009,0.058-0.011c0.913-0.151,1.825-0.303,2.736-0.455
			c0.909,0.175,1.816,0.348,2.726,0.521c5.602,1.073,10.437,4.213,13.291,9.229c3.422,6.007,2.644,10.905,1.652,17.163
			c-0.457,2.911-0.642,5.688-1.019,8.534c4.033-0.265,8.21,0.587,12.578,2.776c7.103,4.099,9.531,3.228,8.159,17.505
			c-1.628,6.884-4.951,10.99-11.009,14.03c-8.527,6.933-16.147,14.704-25.999,19.77c-0.165,1.07-0.318,2.153-0.51,3.125
			c-2.567,13.07-4.613,26.19-7.037,39.25c2.074-1.228,4.26-2.295,6.548-3.193c7.229-2.838,14.941-3.739,22.655-3.175
			c7.443,0.546,14.648,2.482,21.133,6.231c2.485,1.437,4.763,3.099,6.822,4.98c3.74-4.22,8.438-7.425,13.831-9.583
			c7.627-3.052,15.904-3.625,24.007-2.69c1.669,0.193,3.33,0.444,4.974,0.76c0.003-0.015,0.011-0.025,0.014-0.041
			c5.201-12.817,10.497-25.609,15.997-38.304c3.738-8.635,7.656-17.918,12.154-26.174c3.461-6.357,4.409-8.914,3.054-15.694
			c-1.582-7.899-2.084-13.986-0.154-21.997c2.824-11.726,10.237-23.297,17.243-32.935c3.008-4.141,5.128-8.695,6.833-13.498
			c1.61-4.524,2.851-9.972,5.453-13.971c6.092-9.37,3.467-8.109,14.576-6.988c7.188,0.722,13.668,3.952,17.696,10.121
			c4.006,6.133,4.304,12.939,3.096,19.656c1.799-1.1,3.556-2.192,5.232-3.119c5.777-3.211,11.723-5.248,17.602-8.101
			c2.743-1.329,5.111-3.033,8.018-4.303c8.201-3.584,16.409-3.18,24.527,0.441c11.716,5.227,10.022,2.408,9.187,15.227
			c-0.234,3.635-1.229,7.137-2.924,10.359c-0.418,0.794-0.873,1.554-1.354,2.288c3.936,0.229,7.755,1.229,11.513,3.752
			c6.48,4.355,9.413,11.387,9.606,19.002c0.06,2.275,0.118,4.553,0.176,6.829c-1.09,1.055-2.182,2.111-3.269,3.167
			c0.296,1.435,0.592,2.869,0.888,4.306c1.411,6.846,0.261,13.758-4.491,19.105c-3.345,3.761-7.489,5.726-12.019,6.7
			c1.43,5.313,0.535,10.78-2.062,15.672c-0.71,1.336-1.418,2.671-2.128,4.007c-0.716,0.407-1.43,0.81-2.144,1.216
			c-2.546,2.167-5.754,3.341-9.435,3.975c-3.598,0.626-5.28,0.985-9.006,0.031c-0.192-0.043-0.385-0.076-0.581-0.109
			c-8.312-1.435-24.078-8.142-33.189-9.363c-7.762,3.632-17.097,4.489-25.959,5.02c-0.485,1.786-0.912,3.511-1.276,4.927
			c-1.95,7.582-3.627,15.263-5.247,22.92c-0.811,3.809-1.595,7.622-2.378,11.435c0.79,0.281,1.575,0.589,2.352,0.924
			c4.02,1.72,7.336,3.912,10.279,6.516c0.596-1.059,1.248-2.101,1.938-3.122c4.307-6.337,10.109-11.112,17.148-14.135
			c7.044-3.026,14.641-3.953,22.249-3.416c7.345,0.518,14.427,2.432,20.886,6.006c6.723,3.718,12.127,9.015,16.022,15.643
			c3.684,6.261,5.857,13.117,6.417,20.355c0.684,8.723,0.37,18.166,0.147,26.917c-0.169,6.655-0.34,13.308-0.507,19.964
			c-0.22,8.612-0.389,17.838-1.453,26.387c-0.887,7.173-3.332,13.894-7.382,19.879c-4.29,6.345-10.122,11.129-17.149,14.155
			c-7.037,3.031-14.661,3.958-22.262,3.422c-6.373-0.449-12.543-1.951-18.284-4.67c-0.593,0.743-1.206,1.473-1.841,2.188
			c-6.882,7.745-15.907,12.439-25.98,14.568c-9.59,2.028-19.568,2.018-28.789-1.618c-4.224-1.668-8.002-3.946-11.279-6.785
			c-3.965,5.591-9.571,9.63-15.973,12.332c-8.02,3.384-16.599,4.218-25.2,3.222c-9.328-1.076-18.151-4.174-25.664-9.9
			c-3.608-2.751-6.757-5.92-9.289-9.51c-0.586,0.811-1.204,1.609-1.847,2.393c-4.874,5.937-11.022,10.375-18.168,13.186
			c-7.217,2.841-14.96,3.741-22.669,3.177c-2.924-0.216-5.808-0.645-8.623-1.313c0.115,3.335,0.229,6.668,0.347,10
			c-22.67-0.018-45.344-0.038-68.014-0.056c-2.332,4.036-5.313,7.662-8.895,10.812c-5.834,5.143-12.806,8.541-20.288,10.546
			c-7.171,1.923-14.659,2.431-21.978,1.038c-6.447-1.228-12.271-3.916-17.31-7.951c-2.94,7.442-8.13,13.517-14.684,18.24
			c-8.418,6.067-18.353,8.471-28.635,8.128c-7-0.236-13.89-1.504-20.239-4.235c-2.825,6.053-6.915,11.305-12.139,15.606
			c-6.302,5.189-13.74,8.485-21.658,10.305c-7.627,1.751-15.43,2.001-23.086,0.26c-6.478-1.47-12.294-4.347-17.312-8.51
			C220.926,465.158,197.334,464.419,173.742,463.686"/>
		<path fill-rule="evenodd" clip-rule="evenodd" fill="#159BDC" d="M379.883,352.798l0.821,12.795
			c8.452,0.948,12.666,0.472,20.441,2.409c13.318,3.322,17.348,19.246,17.06-12.102c-0.757-24.6-0.735-50.251-2.33-74.676
			c-1.513-23.201-4.012-46.258-5.712-68.715c-1.402-18.534-2.433-21.328,7.742-31.269c9.377-9.161,5.841-15.697,10.588-27.967
			c5.661-14.622,34.197-29.218,33.871-37.996c-0.427-11.469-15.615,3.446-18.684,6.075c-3.49,2.993-12.676,9.854-18.17,10.604
			c2.684-7.434,10.355-14.471,15.259-22.421c3.768-6.107,14.924-16.149,10.963-23.387c-5.467-5.096-8.703,1.109-11.657,5.198
			c-3.719,5.147-4.712,6.358-8.81,10.811c-6.399,6.953-15.693,22.645-19.889,18.119c-1.953-4.859,11.174-46.293,7.483-54.031
			c-11.989-7.708-12.173,13.19-14.723,21.578c-2.779,9.136-4.902,20.235-7.589,29.58c-4.916-1.707-4.393-4.709-4.531-10.969
			c-0.249-11.256,2.038-39.571-3.037-41.691c-8.847-0.375-8.154,7.455-8.755,15.516c-0.605,8.142-2.248,14.859-2.313,23.369
			c-0.11,14.287,0.316,33.264-8.94,40.43c-18.165,2.33-18.227-24.801-39.545-19.735c0.01,8.272,3.265,6.593,7.465,11.986
			c12.583,16.157,25.327,37.248,40.783,48.958c10.206,7.729,7.642,13.136,7.08,28.136
			C382.978,260.942,377.99,304.417,379.883,352.798"/>
		<path fill-rule="evenodd" clip-rule="evenodd" fill="#A29BC9" d="M277.516,320.455l-0.085,19.107
			c6.352,0.115,3.693-0.785,9.946,0.061c4.942,0.67,7.567,0.717,12.529,0.329c-0.459-12.978,0.61-26.548-0.243-39.536
			c-0.778-11.844-1.167-25.89-0.778-37.755c0.238-7.287,2.914-8.861,8.051-12.538c3.965-2.839,6.516-6.252,9.756-9.991
			c2.278-2.634,16.332-19.584,16.885-22.077c-10.876-5.422-12.449,10.273-23.283,9.963c-6.265-2.701-4.466-24.808-5.302-37.98
			c-0.449-7.029,0.993-8.188-6.108-7.655c-3.396,7.31,0.188,19.187-2.992,27.184c-2.929-1.217-2.648-1.361-3.541-7.278
			l-3.469-17.055c-1.47-5.695-0.718-4.191-6.289-4.447c-3.303,7.632,2.922,22.158,2.092,32.259c-4.679-1.096-3.649-1.88-6.375-5.763
			c-7.041-10.028-10.215-16.373-16.039-16.182c-2.249,10.967,12.761,19.37,13.304,27.566c-8.615-1.647-10.468-11.871-20.121-11.019
			c0.338,9.047,11.493,13.432,16.5,20.239c3.954,5.37,2.223,7.777,4.208,14.047c1.791,5.645,4.278,5.523,6.183,11.286
			C286.527,265.882,278.453,304.966,277.516,320.455"/>
		<path fill-rule="evenodd" clip-rule="evenodd" fill="#C3107A" d="M195.775,221.894c5.507,12.307,11.98,60.356,15.346,77.319
			c5.22,26.318,12.893,48.47,19.382,73.169l2.688,4.525c3.005-3.484,3.858-3.246,7.327-5.904
			c16.802-12.868,24.66-0.588,23.715-15.529c-3.282-15.157-37.446-111.134-47.373-131.197
			c-15.597-31.522,13.541-24.905-16.35-69.614c-8.382-12.539-9.662-25.309-11.63-28.606c-17.334,1.06,0.091,27.839-1.834,36.55
			c-0.285,0.209-0.826,0.096-0.936,0.494c-0.471,1.712-6.82,0.099-8.39-0.414c-3.691-1.209-5.478-2.189-9.165-3.8
			c-5.263-2.301-10.886-6.495-15.738-9.444c-5.5-3.343-10.461-5.118-16.521-8.354c-5.85-3.126-9.876-8.174-19.291-4.411
			c0.235,9.066,12.066,13.278,17.805,16.934c8.099,5.155,18.163,10.769,18.766,17.109c-4.798,1.48-7.315-0.139-11.539-0.597
			c-6.57-2.162-15.383-2.616-23.456-3.106c-8.399-0.511-19.08-5.644-19.818,5.778c4.45,4.663,27.338,7.555,38.046,9.4
			c11.389,1.964,10.197,0.378,11.743,3.713c-6.543,4.454-42.927-1.419-48.569,4.002c-1.585,6.41,2.51,7.752,8.301,8.251
			c2.111,0.181,5.22,0.006,7.122,0.507c14.628,1.373,5.484,0.928,19.639,0.755c5.562-0.064,10.253-0.522,14.203,1.344
			c-3.746,11.743-40.01,7.127-33.417,20.817c1.365,0.848-0.399,0.632,2.576,1.268c3.18,0.68,0.762,0.556,4.297,0.088
			c9.718-1.292,28.605-9.177,40.027-8.191C169.362,220.201,183.489,220.439,195.775,221.894"/>
		<path fill-rule="evenodd" clip-rule="evenodd" fill="#222221" d="M381.948,417.032c-0.094-0.335-0.124-0.62-0.154-0.903
			c0.563,0.399,0.563,0.399,0.723,0.842C382.291,416.995,382.118,417.014,381.948,417.032"/>
	</g>
	<g>
		<defs>
			<path id="SVGID_1_" d="M511.974,136.867c-0.517,0-1.117,0.114-1.813,0.359c-2.726,3.387-1.055,25.36-2.583,27.53
				c-2.599,1.747-5.361-7.08-7.71-11.257c-1.505-2.674-1.856-3.386-3.092-6.358c-0.983-2.362-1.859-5.8-5.147-3.925
				c-2.797,3.114,1.54,9.366,2.692,12.82c1.497,4.492,4.464,8.857,4.924,12.838c-2.621-1.008-6.36-5.464-7.734-7.347
				c-1.206-1.656-6.971-10.783-8.512-5.171c-1.179,4.293,11.203,14.814,12.298,22.689c0.918,6.608-1.586,9.42,1.979,15.033
				c3.864,6.09,3.031,7.348,0.189,16.33c-3.452,10.884-7.362,21.967-10.802,33.24c-3.626,11.867-6.595,24.528-9.826,36.579
				c-3.783,15.433,0.059,8.045,7.014,7.956c4.06-0.052,6.084,0.676,10.365,1.189l1.891-6.215
				c6.554-23.649,9.144-45.688,13.791-69.35c1.463-7.468,0.825-10.432,6.76-13.06c8.986-3.977,17.726-12.902,25.812-19.408
				c2.699-2.173,4.109-0.966,5.074-5.044c-5.209-2.615-8.563-0.175-11.828,2.264c-2.959,2.21-5.846,4.421-9.978,2.87
				c-3.734-4.617-1.321-13.929,0.285-20.992c0.959-4.207,0.929-7.712,1.572-11.799c0.641-4.049,1.896-7.831-2.515-8.675
				c-2.75,0.455-4.912,14.693-6.342,20.216c-0.798,3.075-0.886,4.615-3.511,4.888c-0.242-4.925,0-10.649-0.309-15.482
				C514.661,145.604,516.521,136.867,511.974,136.867C511.974,136.867,511.974,136.867,511.974,136.867"/>
		</defs>
		<use xlink:href="#SVGID_1_"  overflow="visible" fill="#E0209B"/>
		<clipPath id="SVGID_2_">
			<use xlink:href="#SVGID_1_"  overflow="visible"/>
		</clipPath>
		<g clip-path="url(#SVGID_2_)">
			<defs>
				<rect id="SVGID_3_" x="471.843" y="133.799" width="79.079" height="163.243"/>
			</defs>
			<clipPath id="SVGID_4_">
				<use xlink:href="#SVGID_3_"  overflow="visible"/>
			</clipPath>
		</g>
	</g>
	<g>
		<path fill-rule="evenodd" clip-rule="evenodd" fill="#2A9549" d="M681.051,190.764c-5.987,12.08-14.338,59.839-18.364,76.657
			c-6.25,26.092-14.784,47.93-22.236,72.354l-2.862,4.416c-2.863-3.599-3.728-3.396-7.089-6.187
			c-16.286-13.515-24.616-1.553-23.088-16.446c3.87-15.02,41.771-109.58,52.476-129.239c16.82-30.887-12.552-25.416,19.066-68.921
			c8.864-12.199,10.647-24.909,12.741-28.127c17.278,1.737-1.184,27.813,0.401,36.592c0.274,0.221,0.82,0.129,0.914,0.53
			c0.404,1.729,6.813,0.366,8.399-0.085c3.737-1.064,5.561-1.97,9.305-3.436c5.353-2.093,11.136-6.065,16.098-8.821
			c5.628-3.126,10.655-4.705,16.839-7.701c5.966-2.895,10.187-7.78,19.447-3.651c-0.59,9.049-12.577,12.796-18.456,16.22
			c-8.292,4.836-18.569,10.052-19.419,16.364c4.734,1.668,7.313,0.148,11.552-0.146c6.649-1.903,15.472-2.011,23.559-2.184
			c8.415-0.181,19.287-4.892,19.575,6.551c-4.627,4.485-27.611,6.477-38.383,7.903c-11.457,1.513-10.203-0.025-11.879,3.247
			c6.36,4.707,42.949,0.266,48.373,5.903c1.333,6.468-2.813,7.648-8.615,7.92c-2.117,0.098-5.219-0.202-7.136,0.228
			c-14.674,0.8-5.521,0.71-19.655-0.014c-5.557-0.285-10.224-0.926-14.246,0.785c3.283,11.879,39.699,8.69,32.577,22.111
			c-1.396,0.791,0.373,0.645-2.624,1.164c-3.204,0.555-0.784,0.526-4.298-0.081c-9.661-1.67-28.221-10.289-39.674-9.749
			C707.507,190.108,693.384,189.789,681.051,190.764"/>
		
			<path fill="none" stroke="#222221" stroke-width="8.487" stroke-linecap="round" stroke-linejoin="round" stroke-miterlimit="22.926" d="
			M566.867,338.672c-1.738,11.802-3.211,20.122-4.411,24.985c-1.225,4.888-3.416,9.251-6.594,13.12
			c-3.179,3.869-7.134,6.729-11.848,8.586c-4.713,1.856-10.011,2.567-15.848,2.141c-5.555-0.408-10.383-1.813-14.496-4.188
			c-4.136-2.378-7.226-5.704-9.311-10.008c-2.085-4.304-3.02-8.898-2.834-13.762c0.21-4.886,1.194-13.365,2.974-25.439l2.957-20.064
			c1.737-11.801,3.205-20.12,4.432-25.008c1.203-4.861,3.393-9.228,6.591-13.094c3.179-3.87,7.115-6.732,11.852-8.588
			c4.711-1.854,9.989-2.568,15.848-2.14c5.553,0.407,10.381,1.811,14.495,4.188c4.113,2.376,7.225,5.704,9.311,10.01
			c2.082,4.303,3.018,8.898,2.812,13.759c-0.189,4.884-1.19,13.34-2.974,25.439L566.867,338.672z M545.59,298.156
			c0.809-5.469,1.057-8.976,0.738-10.551c-0.305-1.548-1.282-2.393-2.945-2.516c-1.419-0.105-2.582,0.438-3.509,1.621
			c-0.944,1.154-1.851,4.765-2.743,10.825l-8.068,54.775c-1.006,6.828-1.359,11.053-1.113,12.671
			c0.244,1.644,1.285,2.521,3.078,2.653c1.838,0.134,3.129-0.697,3.924-2.491c0.775-1.819,1.678-6.153,2.699-13.081L545.59,298.156z
			"/>
		<path fill="#C3107A" d="M566.867,338.672c-1.738,11.802-3.205,20.122-4.411,24.985c-1.225,4.888-3.416,9.251-6.594,13.12
			c-3.179,3.869-7.134,6.729-11.848,8.586c-4.713,1.856-10.011,2.567-15.848,2.141c-5.552-0.408-10.383-1.813-14.497-4.188
			c-4.135-2.378-7.225-5.704-9.31-10.008c-2.082-4.304-3.02-8.898-2.834-13.762c0.21-4.886,1.194-13.365,2.974-25.439l2.957-20.064
			c1.737-11.801,3.205-20.12,4.432-25.008c1.203-4.861,3.393-9.228,6.591-13.094c3.179-3.87,7.115-6.732,11.852-8.588
			c4.713-1.854,9.989-2.568,15.848-2.14c5.553,0.407,10.386,1.811,14.495,4.188c4.113,2.376,7.225,5.704,9.311,10.009
			c2.082,4.304,3.018,8.899,2.812,13.76c-0.189,4.884-1.19,13.34-2.974,25.439L566.867,338.672z M545.59,298.156
			c0.809-5.469,1.057-8.976,0.738-10.551c-0.305-1.548-1.282-2.393-2.945-2.516c-1.419-0.105-2.582,0.438-3.509,1.618
			c-0.944,1.157-1.851,4.768-2.741,10.828l-8.07,54.775c-1.006,6.828-1.359,11.053-1.113,12.671
			c0.244,1.644,1.285,2.521,3.078,2.651c1.838,0.133,3.129-0.695,3.924-2.489c0.775-1.819,1.678-6.153,2.699-13.081L545.59,298.156z
			"/>
		
			<path fill="none" stroke="#222221" stroke-width="8.542" stroke-linecap="round" stroke-linejoin="round" stroke-miterlimit="22.926" d="
			M370.611,368.116l-26.782-0.896l-0.048-20.791c-0.015-6.041-0.326-9.825-0.896-11.355c-0.566-1.503-1.828-2.3-3.783-2.367
			c-2.216-0.073-3.602,0.788-4.207,2.579c-0.582,1.816-0.878,5.733-0.865,11.774l0.127,55.45c0.014,5.813,0.327,9.6,0.917,11.379
			c0.612,1.808,1.939,2.735,4.025,2.804c1.997,0.068,3.298-0.772,3.903-2.536c0.604-1.743,0.921-5.884,0.905-12.429l-0.034-14.952
			l26.781,0.896l0.012,4.632c0.027,12.333-0.713,21.066-2.201,26.177c-1.487,5.11-4.821,9.528-9.96,13.232
			c-5.138,3.703-11.498,5.454-19.034,5.201c-7.865-0.261-14.339-2.139-19.43-5.607c-5.088-3.466-8.489-8.135-10.153-14.005
			c-1.663-5.895-2.508-14.681-2.536-26.385l-0.08-34.859c-0.019-8.61,0.227-15.045,0.718-19.332c0.511-4.286,2-8.39,4.531-12.281
			c2.511-3.893,6.002-6.922,10.471-9.062c4.468-2.117,9.613-3.102,15.412-2.909c7.907,0.266,14.427,2.269,19.56,5.966
			c5.135,3.718,8.511,8.237,10.151,13.576c1.621,5.341,2.444,13.598,2.468,24.749L370.611,368.116z"/>
		<path fill="#1269B0" d="M370.611,368.115l-26.782-0.895l-0.048-20.792c-0.015-6.04-0.326-9.824-0.896-11.354
			c-0.566-1.506-1.828-2.3-3.784-2.367c-2.216-0.073-3.603,0.786-4.206,2.579c-0.582,1.816-0.878,5.733-0.865,11.774l0.127,55.45
			c0.014,5.813,0.327,9.6,0.917,11.379c0.612,1.808,1.939,2.735,4.023,2.804c1.999,0.068,3.3-0.772,3.905-2.536
			c0.604-1.743,0.921-5.884,0.905-12.429l-0.034-14.952l26.781,0.896l0.012,4.631c0.027,12.333-0.713,21.067-2.201,26.178
			c-1.487,5.11-4.821,9.528-9.96,13.232c-5.139,3.703-11.498,5.454-19.036,5.201c-7.863-0.261-14.337-2.139-19.428-5.607
			c-5.088-3.466-8.489-8.135-10.153-14.005c-1.663-5.895-2.508-14.681-2.536-26.385l-0.08-34.861
			c-0.019-8.608,0.226-15.043,0.716-19.33c0.513-4.286,2.002-8.39,4.533-12.281c2.511-3.893,5.999-6.922,10.471-9.062
			c4.468-2.117,9.613-3.102,15.412-2.909c7.907,0.266,14.426,2.269,19.56,5.966c5.135,3.718,8.511,8.237,10.151,13.576
			c1.621,5.341,2.441,13.598,2.468,24.749L370.611,368.115z"/>
		
			<path fill="none" stroke="#222221" stroke-width="9.158" stroke-linecap="round" stroke-linejoin="round" stroke-miterlimit="22.926" d="
			M303.026,396.847c2.486,12.629,3.992,21.609,4.525,26.966c0.514,5.39-0.131,10.545-1.954,15.504
			c-1.822,4.956-4.794,9.123-8.897,12.502c-4.1,3.379-9.202,5.766-15.26,7.158c-5.762,1.321-11.152,1.398-16.168,0.255
			c-5.038-1.143-9.359-3.581-13.015-7.336c-3.655-3.754-6.254-8.167-7.814-13.205c-1.543-5.069-3.598-14.063-6.14-26.983
			l-4.225-21.474c-2.486-12.629-3.992-21.608-4.506-26.998c-0.533-5.357,0.112-10.513,1.957-15.476
			c1.822-4.958,4.773-9.121,8.896-12.503c4.102-3.379,9.181-5.762,15.261-7.158c5.762-1.324,11.153-1.399,16.169-0.254
			s9.358,3.579,13.013,7.334c3.656,3.754,6.257,8.168,7.794,13.211c1.565,5.064,3.59,14.037,6.139,26.982L303.026,396.847z
			 M266.938,362.018c-1.151-5.852-2.159-9.522-3.049-11.034c-0.862-1.49-2.159-2.051-3.883-1.656
			c-1.473,0.34-2.454,1.258-2.966,2.757c-0.538,1.48-0.159,5.461,1.12,11.95l11.534,58.62c1.437,7.306,2.596,11.745,3.429,13.325
			c0.836,1.606,2.206,2.179,4.068,1.75c1.904-0.436,2.913-1.692,3.072-3.777c0.132-2.106-0.512-6.827-1.971-14.242L266.938,362.018z
			"/>
		<path fill="#FDEC1D" d="M303.025,396.847c2.487,12.629,3.993,21.609,4.526,26.967c0.514,5.389-0.131,10.544-1.954,15.503
			c-1.822,4.956-4.794,9.123-8.897,12.502c-4.1,3.379-9.202,5.766-15.26,7.158c-5.764,1.321-11.152,1.398-16.168,0.255
			c-5.038-1.143-9.359-3.581-13.015-7.336c-3.655-3.754-6.254-8.167-7.814-13.205c-1.543-5.069-3.598-14.063-6.14-26.983
			l-4.225-21.474c-2.486-12.629-3.992-21.608-4.506-26.998c-0.533-5.357,0.112-10.513,1.957-15.474
			c1.822-4.96,4.773-9.123,8.896-12.505c4.102-3.377,9.181-5.762,15.261-7.158c5.762-1.324,11.153-1.399,16.169-0.254
			s9.358,3.579,13.013,7.335c3.656,3.753,6.257,8.167,7.794,13.21c1.565,5.064,3.59,14.037,6.139,26.982L303.025,396.847z
			 M266.938,362.018c-1.151-5.852-2.159-9.522-3.049-11.034c-0.862-1.49-2.159-2.051-3.883-1.656
			c-1.473,0.34-2.457,1.258-2.966,2.757c-0.538,1.48-0.159,5.463,1.119,11.95l11.535,58.62c1.437,7.306,2.596,11.745,3.429,13.325
			c0.836,1.606,2.206,2.179,4.066,1.75c1.906-0.436,2.915-1.692,3.074-3.777c0.132-2.106-0.512-6.827-1.971-14.242L266.938,362.018z
			"/>
		
			<polygon fill="none" stroke="#222221" stroke-width="8.542" stroke-linecap="round" stroke-linejoin="round" stroke-miterlimit="22.926" points="
			498.519,276.826 502.66,396.135 479.168,396.116 463.336,341.87 465.217,396.104 442.812,396.086 438.669,276.776 
			461.075,276.795 477.979,330.538 476.115,276.807 		"/>
		<polygon fill="#FDEC1D" points="498.519,276.826 502.66,396.135 479.168,396.116 463.336,341.87 465.217,396.104 442.812,396.086 
			438.669,276.776 461.075,276.795 477.979,330.538 476.115,276.807 		"/>
		
			<path fill="none" stroke="#222221" stroke-width="9.748" stroke-linecap="round" stroke-linejoin="round" stroke-miterlimit="22.926" d="
			M89.206,330.914l29.383-8.625c9.261-2.718,16.506-3.947,21.695-3.644c5.181,0.273,9.885,2.569,14.071,6.843
			c4.193,4.3,7.668,12.162,10.454,23.603c1.89,7.759,2.175,13.446,0.84,17.097c-1.33,3.679-4.84,7.221-10.556,10.632
			c7.245-0.182,12.578,1.453,16.026,4.894c3.43,3.48,6.204,9.513,8.298,18.109l2.989,12.278c2.176,8.93,2.928,15.796,2.215,20.641
			c-0.696,4.808-2.776,8.558-6.206,11.27c-3.432,2.709-11.071,5.788-22.91,9.265l-34.062,9.995L89.206,330.914z M124.171,344.9
			l7.171,29.441c1.227-0.419,2.2-0.734,2.915-0.945c2.889-0.846,4.523-2.225,4.91-4.103c0.38-1.904-0.37-6.766-2.281-14.608
			c-1.011-4.159-2.053-6.964-3.098-8.421c-1.077-1.478-2.17-2.294-3.322-2.403C129.307,343.722,127.192,344.074,124.171,344.9z
			 M136.359,394.937l9.019,37.032c4.095-1.352,6.554-2.91,7.367-4.615c0.819-1.675,0.571-5.221-0.729-10.551l-3.003-12.335
			c-1.38-5.665-2.741-8.941-4.06-9.842C143.635,393.727,140.768,393.821,136.359,394.937z"/>
		<path fill="#C3107A" d="M89.206,330.914l29.382-8.625c9.262-2.718,16.507-3.947,21.697-3.644c5.18,0.273,9.885,2.569,14.07,6.844
			c4.193,4.299,7.668,12.161,10.455,23.602c1.889,7.759,2.175,13.446,0.84,17.097c-1.331,3.679-4.841,7.221-10.557,10.632
			c7.245-0.182,12.578,1.453,16.026,4.894c3.43,3.48,6.204,9.513,8.298,18.109l2.989,12.278c2.178,8.93,2.928,15.796,2.215,20.641
			c-0.696,4.808-2.776,8.558-6.206,11.27c-3.432,2.709-11.072,5.788-22.91,9.265l-34.062,9.995L89.206,330.914z M124.17,344.9
			l7.172,29.441c1.227-0.419,2.2-0.734,2.915-0.945c2.889-0.846,4.523-2.225,4.91-4.103c0.379-1.904-0.371-6.766-2.281-14.608
			c-1.011-4.159-2.053-6.964-3.098-8.421c-1.077-1.478-2.17-2.294-3.322-2.403C129.307,343.722,127.192,344.074,124.17,344.9
			 M136.358,394.937l9.02,37.032c4.095-1.352,6.554-2.91,7.367-4.615c0.819-1.675,0.571-5.221-0.729-10.551l-3.003-12.335
			c-1.38-5.665-2.741-8.941-4.06-9.842C143.635,393.727,140.768,393.821,136.358,394.937"/>
		
			<path fill="none" stroke="#222221" stroke-width="8.538" stroke-linecap="round" stroke-linejoin="round" stroke-miterlimit="22.926" d="
			M436.097,359.247c2.634,11.709,4.263,20.042,4.893,25.024c0.613,5.013,0.143,9.85-1.432,14.54
			c-1.572,4.689-4.237,8.682-7.976,11.975c-3.735,3.29-8.431,5.69-14.039,7.194c-5.335,1.429-10.357,1.682-15.059,0.785
			c-4.721-0.897-8.81-3.027-12.31-6.408c-3.501-3.383-6.032-7.415-7.613-12.065c-1.566-4.681-3.704-13.008-6.399-24.984
			l-4.475-19.904c-2.633-11.708-4.263-20.041-4.877-25.055c-0.632-4.983-0.16-9.819,1.434-14.513
			c1.575-4.688,4.218-8.678,7.976-11.975c3.737-3.29,8.409-5.686,14.04-7.195c5.335-1.432,10.357-1.684,15.059-0.783
			c4.701,0.899,8.81,3.024,12.31,6.407c3.499,3.383,6.032,7.414,7.592,12.068c1.585,4.678,3.698,12.984,6.398,24.986
			L436.097,359.247z M401.595,327.953c-1.22-5.426-2.25-8.82-3.116-10.199c-0.842-1.364-2.065-1.843-3.659-1.414
			c-1.367,0.366-2.257,1.255-2.697,2.674c-0.464,1.398-0.008,5.103,1.343,11.115l12.221,54.34
			c1.522,6.771,2.713,10.877,3.529,12.324c0.82,1.472,2.11,1.96,3.831,1.497c1.766-0.475,2.676-1.679,2.771-3.632
			c0.069-1.968-0.651-6.355-2.196-13.228L401.595,327.953z"/>
		<path fill="#D67C1F" d="M436.097,359.247c2.631,11.709,4.263,20.042,4.893,25.024c0.613,5.013,0.143,9.85-1.433,14.54
			c-1.571,4.689-4.236,8.682-7.975,11.975c-3.736,3.29-8.431,5.693-14.039,7.195c-5.336,1.431-10.357,1.681-15.059,0.784
			c-4.722-0.897-8.81-3.027-12.31-6.408c-3.501-3.383-6.034-7.415-7.613-12.065c-1.566-4.681-3.704-13.008-6.399-24.984
			l-4.477-19.904c-2.631-11.708-4.261-20.041-4.876-25.055c-0.631-4.983-0.159-9.819,1.435-14.513
			c1.574-4.688,4.218-8.678,7.976-11.975c3.737-3.29,8.409-5.686,14.039-7.195c5.336-1.432,10.358-1.684,15.058-0.783
			c4.703,0.899,8.81,3.026,12.311,6.407c3.5,3.383,6.033,7.414,7.591,12.068c1.587,4.678,3.7,12.984,6.4,24.986L436.097,359.247z
			 M401.595,327.953c-1.22-5.426-2.25-8.82-3.117-10.199c-0.841-1.362-2.064-1.843-3.658-1.414
			c-1.367,0.366-2.257,1.255-2.697,2.675c-0.464,1.397-0.01,5.102,1.343,11.114l12.221,54.34c1.522,6.771,2.713,10.877,3.527,12.326
			c0.822,1.47,2.112,1.958,3.833,1.495c1.766-0.475,2.675-1.679,2.771-3.629c0.069-1.971-0.651-6.358-2.196-13.231L401.595,327.953z
			"/>
		
			<path fill="none" stroke="#222221" stroke-width="8.518" stroke-linecap="round" stroke-linejoin="round" stroke-miterlimit="22.926" d="
			M638.896,305.996l-24.813-2.865l0.52-8.796c0.244-4.108,0.073-6.776-0.488-7.978c-0.561-1.198-1.593-1.872-3.088-2.045
			c-1.602-0.186-2.862,0.427-3.776,1.862c-0.91,1.406-1.458,3.664-1.639,6.746c-0.232,3.958,0.044,7.017,0.855,9.129
			c0.772,2.108,3.165,4.806,7.138,8.141c11.414,9.54,18.495,17.093,21.286,22.688c2.79,5.594,3.831,14.217,3.146,25.868
			c-0.5,8.467-1.734,14.606-3.683,18.417c-1.948,3.812-5.463,6.812-10.521,8.952c-5.078,2.139-10.859,2.859-17.381,2.106
			c-7.151-0.827-13.169-3.111-18.032-6.825c-4.886-3.718-7.967-8.086-9.242-13.101c-1.275-5.041-1.65-11.994-1.124-20.916
			l0.46-7.767l24.809,2.865l-0.852,14.457c-0.264,4.459-0.085,7.355,0.533,8.714c0.641,1.336,1.84,2.13,3.616,2.336
			c1.776,0.203,3.146-0.445,4.107-1.973c0.964-1.503,1.537-3.859,1.724-7.041c0.411-6.99-0.14-11.671-1.658-14.016
			c-1.563-2.35-5.534-6.416-11.87-12.217c-6.353-5.88-10.532-10.07-12.564-12.626c-2.009-2.552-3.62-5.943-4.79-10.164
			c-1.191-4.225-1.577-9.491-1.204-15.805c0.534-9.095,1.924-15.645,4.188-19.623c2.241-3.978,5.685-6.886,10.313-8.747
			c4.624-1.838,10.112-2.416,16.462-1.681c6.957,0.803,12.795,2.788,17.519,5.932c4.743,3.171,7.777,6.801,9.148,10.946
			c1.353,4.115,1.736,10.895,1.18,20.342L638.896,305.996z"/>
		<path fill="#2A9549" d="M638.896,305.996l-24.813-2.865l0.52-8.796c0.244-4.108,0.073-6.776-0.488-7.978
			c-0.563-1.198-1.593-1.872-3.088-2.045c-1.602-0.186-2.862,0.427-3.776,1.862c-0.91,1.406-1.458,3.664-1.639,6.746
			c-0.236,3.958,0.044,7.017,0.855,9.129c0.772,2.108,3.165,4.805,7.138,8.141c11.414,9.54,18.495,17.093,21.286,22.688
			c2.79,5.594,3.829,14.217,3.146,25.868c-0.501,8.467-1.736,14.606-3.683,18.417c-1.951,3.812-5.463,6.812-10.521,8.952
			c-5.078,2.139-10.859,2.859-17.381,2.106c-7.151-0.827-13.169-3.111-18.032-6.825c-4.886-3.718-7.967-8.086-9.243-13.101
			c-1.274-5.041-1.649-11.994-1.124-20.916l0.461-7.767l24.809,2.865l-0.853,14.457c-0.263,4.459-0.084,7.355,0.534,8.714
			c0.641,1.336,1.84,2.13,3.614,2.336c1.778,0.203,3.147-0.445,4.109-1.973c0.961-1.503,1.537-3.859,1.724-7.041
			c0.411-6.99-0.141-11.671-1.658-14.016c-1.565-2.35-5.534-6.416-11.87-12.217c-6.353-5.88-10.532-10.07-12.564-12.626
			c-2.009-2.552-3.62-5.943-4.79-10.166c-1.191-4.223-1.58-9.489-1.207-15.803c0.537-9.095,1.927-15.645,4.19-19.623
			c2.241-3.978,5.685-6.886,10.31-8.747c4.628-1.838,10.113-2.416,16.466-1.681c6.954,0.803,12.795,2.788,17.519,5.932
			c4.743,3.171,7.777,6.801,9.148,10.946c1.349,4.115,1.736,10.895,1.18,20.342L638.896,305.996z"/>
		
			<path fill="none" stroke="#222221" stroke-width="8.549" stroke-linecap="round" stroke-linejoin="round" stroke-miterlimit="22.926" d="
			M700.709,306.078l-26.192,5.531l-3.748-20.466c-1.092-5.946-2.066-9.599-2.894-10.969c-0.821-1.346-2.189-1.828-4.099-1.424
			c-2.169,0.457-3.364,1.637-3.633,3.545c-0.241,1.93,0.168,5.859,1.261,11.805l10.002,54.583c1.052,5.725,2.028,9.378,2.919,10.991
			c0.917,1.634,2.373,2.228,4.411,1.797c1.953-0.414,3.069-1.547,3.342-3.434c0.277-1.86-0.152-6.015-1.333-12.457l-2.697-14.719
			l26.188-5.53l0.836,4.559c2.224,12.139,3.061,20.92,2.528,26.309c-0.537,5.389-2.988,10.54-7.326,15.419
			c-4.332,4.878-10.201,8.126-17.571,9.682c-7.689,1.624-14.319,1.326-19.885-0.869c-5.566-2.197-9.697-5.981-12.365-11.364
			c-2.665-5.407-5.052-13.858-7.165-25.382l-6.288-34.315c-1.554-8.474-2.461-14.871-2.747-19.212
			c-0.27-4.344,0.448-8.741,2.216-13.183c1.748-4.433,4.597-8.253,8.56-11.431c3.965-3.155,8.794-5.358,14.464-6.557
			c7.732-1.634,14.426-1.22,20.075,1.191c5.651,2.435,9.737,6.075,12.285,10.943c2.524,4.869,4.797,12.806,6.808,23.783
			L700.709,306.078z"/>
		<path fill="#FDEC1D" d="M700.705,306.078l-26.188,5.532l-3.749-20.466c-1.091-5.947-2.069-9.6-2.894-10.968
			c-0.82-1.348-2.188-1.83-4.101-1.426c-2.166,0.457-3.362,1.637-3.631,3.545c-0.24,1.93,0.168,5.859,1.262,11.805l10.002,54.586
			c1.047,5.722,2.027,9.376,2.919,10.988c0.917,1.634,2.373,2.228,4.411,1.799c1.953-0.416,3.069-1.549,3.342-3.434
			c0.277-1.862-0.156-6.017-1.336-12.459l-2.694-14.719l26.188-5.53l0.836,4.559c2.224,12.139,3.061,20.92,2.528,26.309
			c-0.537,5.389-2.99,10.54-7.325,15.419c-4.333,4.878-10.202,8.126-17.572,9.682c-7.689,1.626-14.319,1.326-19.885-0.869
			c-5.566-2.197-9.7-5.981-12.365-11.364c-2.666-5.407-5.053-13.858-7.165-25.382l-6.288-34.315
			c-1.554-8.474-2.461-14.871-2.752-19.212c-0.265-4.344,0.45-8.741,2.22-13.183c1.744-4.433,4.599-8.252,8.561-11.431
			c3.965-3.155,8.791-5.358,14.464-6.557c7.732-1.634,14.426-1.219,20.073,1.191c5.653,2.435,9.739,6.075,12.287,10.943
			c2.524,4.87,4.798,12.808,6.806,23.783L700.705,306.078z"/>
		
			<path fill="none" stroke="#222221" stroke-width="8.357" stroke-linecap="round" stroke-linejoin="round" stroke-miterlimit="22.926" d="
			M764.719,320.203c-0.296,11.742-0.741,20.021-1.333,24.861c-0.616,4.865-2.218,9.215-4.828,13.076
			c-2.613,3.858-6.092,6.72-10.42,8.583c-4.33,1.866-9.354,2.597-15.034,2.195c-5.4-0.382-10.221-1.757-14.465-4.105
			c-4.265-2.348-7.633-5.643-10.145-9.915c-2.509-4.271-3.948-8.833-4.337-13.671c-0.367-4.86-0.407-13.296-0.104-25.308
			l0.51-19.964c0.297-11.742,0.743-20.022,1.356-24.885c0.593-4.841,2.193-9.191,4.827-13.05c2.611-3.86,6.069-6.724,10.423-8.586
			c4.328-1.865,9.334-2.598,15.029-2.195c5.402,0.381,10.226,1.757,14.469,4.105c4.24,2.348,7.63,5.644,10.141,9.916
			c2.513,4.27,3.952,8.834,4.316,13.671c0.388,4.86,0.411,13.271,0.104,25.307L764.719,320.203z M739.479,280
			c0.138-5.441-0.031-8.93-0.522-10.493c-0.473-1.538-1.516-2.377-3.13-2.49c-1.384-0.098-2.441,0.444-3.196,1.624
			c-0.777,1.153-1.229,4.746-1.383,10.776l-1.387,54.501c-0.172,6.794-0.022,10.997,0.404,12.604
			c0.428,1.634,1.536,2.502,3.277,2.624c1.788,0.125,2.936-0.706,3.494-2.492c0.536-1.81,0.902-6.125,1.076-13.016L739.479,280z"/>
		<path fill="#C3107A" d="M764.719,320.203c-0.296,11.742-0.741,20.021-1.333,24.861c-0.616,4.865-2.218,9.215-4.828,13.076
			c-2.613,3.858-6.094,6.72-10.42,8.583c-4.333,1.866-9.356,2.597-15.034,2.195c-5.4-0.382-10.221-1.757-14.465-4.105
			c-4.265-2.347-7.633-5.643-10.145-9.915c-2.512-4.271-3.948-8.833-4.337-13.671c-0.367-4.86-0.407-13.296-0.104-25.308
			l0.51-19.964c0.297-11.742,0.743-20.022,1.356-24.885c0.593-4.841,2.193-9.191,4.829-13.05c2.609-3.86,6.067-6.724,10.421-8.586
			c4.328-1.865,9.334-2.598,15.029-2.195c5.402,0.381,10.226,1.757,14.469,4.105c4.24,2.348,7.63,5.645,10.141,9.916
			c2.513,4.27,3.952,8.834,4.316,13.671c0.388,4.86,0.411,13.271,0.104,25.307L764.719,320.203z M739.479,280
			c0.138-5.441-0.031-8.93-0.522-10.493c-0.473-1.537-1.516-2.377-3.13-2.49c-1.386-0.098-2.444,0.444-3.196,1.624
			c-0.777,1.153-1.229,4.746-1.383,10.776l-1.387,54.501c-0.172,6.794-0.022,10.997,0.404,12.604
			c0.428,1.634,1.536,2.502,3.277,2.626c1.786,0.123,2.936-0.708,3.494-2.494c0.536-1.81,0.902-6.124,1.076-13.016L739.479,280z"/>
		
			<polygon fill="none" stroke="#222221" stroke-width="9.44" stroke-linecap="round" stroke-linejoin="round" stroke-miterlimit="22.926" points="
			209.802,316.833 212.236,422.337 230.347,422.903 230.956,449.294 183.046,447.794 180.003,315.899 		"/>
		<polygon fill="#2A9549" points="209.802,316.833 212.236,422.337 230.347,422.903 230.956,449.294 183.046,447.794 
			180.003,315.899 		"/>
	</g>
</g>
</svg>
